<?xml version="1.0" encoding="utf-8"?>
<!-- Generator: Adobe Illustrator 24.1.3, SVG Export Plug-In . SVG Version: 6.00 Build 0)  -->
<svg version="1.1" baseProfile="tiny" id="Calque_1"
	 xmlns="http://www.w3.org/2000/svg" xmlns:xlink="http://www.w3.org/1999/xlink" x="0px" y="0px" viewBox="0 0 200 100"
	 overflow="visible" xml:space="preserve">
<g>
	<rect x="0.2" y="25.8" fill="none" width="199.8" height="66.3"/>
	<path fill="#E63947" d="M29.8,43.7c-4.2,0-7.6,3.4-7.6,7.6c0,4.2,3.4,7.6,7.6,7.6c2.1,0,3.9-0.8,5.5-2.3l5.9,6.2
		c-2.8,2.8-6.9,4.6-11.4,4.6c-8.9,0-16.1-7.2-16.1-16.2c0-8.9,7.2-16.1,16.1-16.1c4.4,0,8.1,1.6,11.4,4.6L35.3,46
		C33.6,44.4,31.9,43.7,29.8,43.7z"/>
	<path fill="#E63947" d="M54.7,32.1v5c2.2-1.3,4.8-2,7.6-2h0.9v8.5h-0.9c-4.3,0-7.6,3.4-7.6,7.6v14.9h-8.5v-34H54.7z"/>
	<path fill="#E63947" d="M99.5,51.3c0,8.9-7.2,16.1-16.2,16.1c-8.9,0-16.1-7.2-16.1-16.1c0-8.9,7.2-16.2,16.1-16.2
		C92.2,35.1,99.5,42.4,99.5,51.3z M75.7,51.3c0,4.2,3.4,7.6,7.6,7.6c4.2,0,7.6-3.4,7.6-7.6c0-4.2-3.4-7.6-7.6-7.6
		C79.1,43.7,75.7,47.1,75.7,51.3z"/>
	<path fill="#E63947" d="M105.9,76.2V25.8h8.5v26.1l13.7-17.2l6.5,5.4l-7.3,9.3l10.3,12.9l-6.5,5.4l-9.2-11.5L105.9,76.2z"/>
	<path fill="#E63947" d="M145.7,33.9c-2.9,0-5.1-2.3-5.1-5.1c0-2.9,2.2-5.1,5.1-5.1c2.8,0,5.1,2.2,5.1,5.1
		C150.8,31.6,148.5,33.9,145.7,33.9z M149.9,66.1h-8.5V36.4h8.5V66.1z"/>
	<path fill="#E63947" d="M188.9,36.4l-19.1,22.1h17.1v7.6H153l19.1-22.1h-16.3v-7.6H188.9z"/>
</g>
<g>
</g>
<g>
</g>
<g>
</g>
<g>
</g>
<g>
</g>
<g>
</g>
</svg>
